<svg xmlns="http://www.w3.org/2000/svg" viewBox="0 0 600 400">
  <g transform="translate(0,400) scale(0.1,-0.1)" stroke="none">
    <path fill="#FFC0CB" d="M4186 2835 c-141 -50 -179 -234 -70 -337 185 -174 459 88 291 279 -58 66 -139 88 -221 58z m145 -116 c41 -44 41 -108 0 -150 -59 -59 -171 -26 -187 55 -19 103 116 171 187 95z"/>
    <path fill="#FFC0CB" d="M3568 2601 c-196 -63 -305 -209 -238 -319 23 -37 42 -50 204 -134 216 -112 230 -146 139 -340 -45 -94 -45 -98 -29 -122 34 -53 64 -34 111 69 120 258 84 348 -192 488 -172 88 -187 109 -120 177 59 60 161 100 257 101 112 1 175 -38 231 -141 84 -155 163 -211 310 -218 96 -5 129 6 129 41 0 35 -19 47 -72 47 -139 0 -203 39 -282 173 -62 106 -111 154 -183 180 -64 23 -190 22 -265 -2z"/>
    <path fill="#FFD700" d="M3068 2077 c-254 -107 -320 -417 -129 -608 183 -183 474 -133 589 100 40 82 40 239 0 321 -84 171 -294 257 -460 187z m252 -102 c170 -86 202 -305 65 -442 -237 -236 -601 81 -410 357 76 109 225 146 345 85z"/>
    <path fill="#E10600" d="M4220 2091 c-301 -93 -373 -475 -125 -663 326 -247 753 159 532 506 -81 127 -268 199 -407 157z m177 -96 c195 -58 260 -317 116 -461 -114 -115 -316 -107 -413 15 -171 217 34 524 297 446z"/>
    <path fill="#0085C7" d="M2197 2572 c-21 -23 -22 -46 -1 -66 20 -21 772 -24 792 -4 19 19 15 66 -7 78 -39 20 -765 13 -784 -8z"/>
    <path fill="#E10600" d="M1872 2288 c-19 -19 -15 -66 7 -78 13 -6 176 -10 460 -10 428 0 442 1 461 20 24 24 24 29 4 58 l-15 22 -453 0 c-338 0 -455 -3 -464 -12z"/>
    <path fill="#000000" d="M1632 2004 c-26 -18 -28 -46 -6 -68 20 -21 982 -24 1002 -4 19 19 15 66 -7 78 -35 18 -962 13 -989 -6z"/>
    <path fill="#FFD700" d="M1336 1728 c-19 -11 -21 -59 -4 -76 23 -23 1141 -17 1161 6 21 24 22 46 1 63 -20 16 -1130 23 -1158 7z"/>
    <path fill="#00A84F" d="M1672 1438 c-17 -17 -15 -65 4 -72 9 -3 172 -6 363 -6 365 0 371 1 371 45 0 12 -5 26 -12 33 -17 17 -709 17 -726 0z"/>
  </g>
</svg>
